<?xml version="1.0" encoding="UTF-8" standalone="no"?>
<!-- Created with Inkscape (http://www.inkscape.org/) -->
<svg
   xmlns:svg="http://www.w3.org/2000/svg"
   xmlns="http://www.w3.org/2000/svg"
   version="1.0"
   width="900"
   height="600"
   viewBox="0 0 330.829 220.552"
   id="svg2533"
   xml:space="preserve">
 <defs
   id="defs2535">
  <style
   type="text/css"
   id="style2537" />
 </defs>
 <g
   id="图层_x0020_1">
  
  <g
   id="_102616672">
   <polygon
   points="0,0 330.829,0 330.829,220.552 0,220.552 0,0 "
   style="fill:#ffffff"
   id="_104661664" />
   <g
   id="g2543">
    <path
   d="M 165.697,198.722 C 152.6178,186.9119 140.8273,186.4862 131.1824,181.9625 C 101.539,168.0586 87.816,140.0759 97.096,107.2218 C 101.36089,92.1228 101.36756,86.4387 90.41746,75.983 C 94.6793,67.28566 98.02558,53.8851 89.39771,41.134 C 94.15609,37.3994 98.91419,33.66495 103.67241,29.9305 C 114.26281,40.2939 130.63261,17.9945 165.69691,17.9945 C 200.76131,17.9945 217.13111,40.2939 227.72151,29.9305 C 232.47975,33.66496 237.23785,37.39941 241.99621,41.134 C 233.36834,53.8851 236.71462,67.2856 240.97646,75.983 C 230.02636,86.4388 230.03306,92.1229 234.29792,107.2218 C 243.57794,140.0759 229.85492,168.0586 200.21152,181.9625 C 190.56667,186.48622 178.77622,186.91191 165.69682,198.722 L 165.697,198.722 z "
   style="fill:#2d00ad"
   id="_104655928" />
    <path
   d="M 230.712,117.521 C 230.27367,114.65111 229.64251,111.73259 228.8067,108.77337 C 224.51652,93.58437 224.13891,85.54537 234.18526,74.73567 C 232.1641,71.29866 231.32065,67.23119 230.68865,61.98507 C 220.46985,64.85454 205.80545,63.88648 199.10405,58.98695 C 186.68445,49.9063 178.20315,46.57005 165.69695,46.57005 C 153.19085,46.57005 144.70955,49.90633 132.28995,58.98695 C 125.58849,63.88648 110.92405,64.85455 100.70535,61.98507 C 100.07335,67.23123 99.22991,71.29871 97.20874,74.73567 C 107.25514,85.54547 106.87748,93.58437 102.5873,108.77337 C 101.75149,111.73259 101.12033,114.65111 100.682,117.521 L 230.712,117.521 z "
   style="fill:#a5a5a5"
   id="_74105112" />
    <path
   d="M 230.719,117.563 C 230.2804,114.67949 229.64743,111.74708 228.80745,108.77341 C 225.19372,95.97911 224.35625,88.25831 230.18606,79.68131 C 227.42856,78.46178 224.31527,75.90517 225.81725,71.29087 C 220.36894,69.44406 204.96275,67.70771 200.32665,64.42297 C 199.31148,63.703865 198.43622,63.580216 196.3342,64.566208 C 193.99933,65.661258 192.98611,67.231178 191.74323,67.166848 C 189.03033,67.02625 188.40736,65.497458 185.71517,65.527048 C 181.94292,65.407429 174.18807,69.619528 172.73307,68.255088 C 171.41962,67.023748 170.32082,62.540038 166.96939,65.841308 C 166.27349,66.526514 165.97729,67.274378 165.48311,67.366348 C 164.02211,67.638513 164.29178,68.20021 164.06629,69.433918 C 163.59559,72.009698 162.26019,71.341298 161.91606,70.368227 C 161.13847,68.171177 160.55843,69.889194 160.60316,70.050215 C 161.14652,72.002465 172.30026,78.425515 173.71946,79.283415 C 179.60957,82.844765 178.94839,84.965685 174.96192,87.263035 C 169.30174,90.524855 169.65796,91.637265 165.06213,93.074785 C 158.86679,95.012315 166.55063,86.685635 162.69975,86.786925 C 157.95124,87.055339 167.88951,82.232915 161.36824,82.471595 C 157.00804,82.631087 157.67171,78.490815 155.93758,79.000275 C 152.70869,79.949311 153.83222,76.215965 150.59014,77.267675 C 147.63092,78.227547 146.09004,79.228545 142.9188,83.003565 C 132.8656,94.020765 121.7149,99.473265 113.5113,108.44306 C 125.3012,102.82082 131.942,93.284165 144.9258,89.217265 C 145.86456,88.849793 147.80806,89.457059 148.81614,89.618636 C 151.6017,90.064187 153.56924,94.374786 154.81489,96.578096 C 155.71669,98.173296 156.71907,99.847136 158.02197,101.14864 C 163.99029,107.10932 169.97427,97.271496 178.06967,104.57773 C 180.67337,106.9276 183.75499,109.77874 187.07863,111.03453 C 188.35485,111.51689 189.66552,111.78475 191.01065,111.94383 L 193.29231,114.98766 C 195.27013,114.90305 191.48788,123.10135 194.90835,123.4673 C 201.37238,124.15875 201.35918,116.80988 211.10355,118.35145 C 218.4145,119.50805 223.92405,119.36842 230.71905,117.56301 L 230.719,117.563 z "
   style="fill:#ffffff"
   id="_104977152" />
    <path
   d="M 165.697,191.294 C 170.73088,187.42047 176.1062,184.54336 182.2568,182.26073 C 185.42817,181.08385 188.82433,180.12787 192.10977,179.01892 C 195.26961,175.68292 196.29408,170.19682 201.23571,168.57912 C 204.42278,165.76869 208.46803,164.55305 211.47611,161.60994 C 214.00312,157.48787 215.11484,150.68014 221.37617,150.70164 C 223.49445,149.68939 222.76478,147.3705 223.94069,145.791 C 224.83165,143.8625 222.20058,142.99738 221.18958,141.42302 C 220.27166,141.01054 221.03078,139.25848 219.8018,138.88837 C 220.99605,135.82189 218.93098,132.91921 216.60584,131.46169 C 214.23929,130.79038 212.16506,131.56325 209.97843,132.11869 C 203.76517,132.401 196.77053,128.42035 191.20733,133.1433 C 187.50191,137.74927 181.11233,137.90418 175.82253,139.14775 C 168.03435,147.39912 156.02833,149.23565 145.18973,153.16645 C 139.43564,160.34153 134.33573,166.09045 128.99123,171.79925 C 128.25517,172.25495 127.73863,172.83873 127.37838,173.50907 C 129.35384,174.67956 131.42974,175.7767 133.60539,176.797 C 138.44615,179.06727 144.07789,180.38322 149.13719,182.26073 C 155.28779,184.54336 160.66319,187.42048 165.69689,191.294 L 165.697,191.294 z "
   style="fill:#00bd39"
   id="_102611296" />
    <path
   d="M 103.166,145.557 C 108.05594,158.7924 118.4139,169.6709 133.6057,176.7965 C 138.44646,179.06677 144.0782,180.38272 149.1375,182.26023 C 154.63068,184.29904 159.5062,186.81243 164.0716,190.08578 C 172.21294,183.01699 177.3588,172.61298 177.3588,161.01358 C 177.3588,139.72188 160.0221,122.45658 138.6416,122.45658 C 122.7814,122.45658 109.1495,131.95944 103.1661,145.55698 L 103.166,145.557 z "
   style="fill:#ffffff"
   id="_74104920" />
    <path
   d="M 231.385,129.808 C 231.49031,127.62484 231.47016,125.40195 231.32498,123.14322 L 100.06998,123.14322 C 99.924799,125.40196 99.904654,127.62485 100.00996,129.808 L 231.38496,129.808 L 231.385,129.808 z "
   style="fill:#ffffff"
   id="_102577960" />
    <path
   d="M 172.028,144.021 C 171.285,142.58585 170.45086,141.20321 169.53447,139.88239 C 169.43444,140.87047 169.23396,141.86215 168.85121,142.74228 C 169.70216,145.7279 170.59257,148.70477 171.40823,151.6997 C 172.04314,154.03026 172.65472,156.42557 173.02066,158.81837 C 174.80759,159.8377 175.66771,161.90805 176.10909,164.10566 C 176.15952,163.43504 176.19175,162.76109 176.20634,162.08477 C 176.14729,161.91528 176.08505,161.748 176.01837,161.58365 C 176.00906,157.18024 175.10782,153.74796 173.32186,152.35879 C 172.9291,152.05342 172.50925,151.86016 172.07023,151.77167 C 171.63162,150.14854 171.16815,148.53208 170.70121,146.91701 C 171.68442,146.31405 172.10622,145.30639 172.028,144.021 L 172.028,144.021 z M 103.1563,145.5309 L 103.24119,145.75916 L 103.25091,145.78445 C 103.3308,145.99757 103.41332,146.20944 103.49626,146.42158 L 103.5071,146.45007 C 103.59921,146.68472 103.69271,146.91826 103.78899,147.15361 C 103.91125,146.89617 104.0299,146.63359 104.14104,146.36573 C 104.73539,147.87132 105.39531,149.3294 106.11775,150.74121 C 106.47577,149.23659 107.02427,147.79129 107.71031,146.40463 C 106.847,146.01743 106.27613,145.36293 106.07162,144.43084 C 105.93991,143.83122 105.96742,143.15101 106.13845,142.4087 C 111.04743,133.95546 119.03485,127.7961 128.31375,125.1435 C 129.0141,125.55418 130.5679,126.91737 131.18962,127.70135 C 127.90558,130.03539 125.25131,132.65479 123.6675,136.43592 C 118.4055,137.53542 114.07753,139.17035 110.3532,143.19809 C 110.33514,143.2206 110.31694,143.24325 110.29887,143.26561 C 108.34995,146.07618 106.85464,149.19337 106.40687,152.593 C 106.70307,153.12386 107.00775,153.65082 107.32382,154.17209 L 107.50415,154.18599 L 107.55152,153.56775 C 107.81924,150.06517 109.31872,146.86434 111.2932,144.00835 C 114.83024,140.1997 118.948,138.68703 123.9394,137.6463 C 126.78706,140.1672 129.11735,143.09766 130.06944,146.83629 C 127.97756,151.72887 126.48531,156.74775 125.5453,161.97959 C 122.30127,162.34081 119.30134,163.421 116.83935,165.645 L 116.79517,165.68501 C 117.10013,165.96606 117.40897,166.24448 117.72156,166.52054 C 119.9985,164.48646 122.77391,163.52311 125.76606,163.20287 C 129.05705,168.04655 133.25554,171.9009 138.51446,174.50457 C 138.59977,175.91222 138.56879,177.33431 138.46987,178.73973 C 138.87249,178.87991 139.27692,179.01703 139.68301,179.15235 L 139.69468,178.99383 C 139.80652,177.48685 139.84347,175.96236 139.75317,174.45205 C 144.76468,171.58327 148.90051,167.95496 152.44227,163.39585 C 156.51197,164.98911 160.46427,166.69851 164.27747,168.85208 C 164.66342,173.18575 164.68509,178.09903 163.92667,182.37598 C 162.4547,183.98591 160.80545,185.35063 158.86654,186.36899 L 158.51324,186.5546 C 158.93948,186.79301 159.36183,187.03669 159.78154,187.28524 C 161.69809,186.22464 163.34914,184.84256 164.82875,183.22652 C 166.16443,182.9638 167.82118,182.93324 169.2762,183.03049 C 167.70225,185.24227 165.88032,187.29691 163.82637,189.15289 C 163.6709,189.29821 163.5128,189.43964 163.35275,189.57857 L 163.35581,189.58079 C 163.70188,189.82226 164.04449,190.06927 164.38779,190.31449 C 172.63652,182.99576 177.45649,172.34479 177.45649,161.27199 C 177.45649,139.83859 160.07459,122.45669 138.64129,122.45669 C 123.25169,122.45669 109.36869,131.53998 103.15629,145.53089 L 103.1563,145.5309 z M 108.41941,151.82516 C 111.34737,153.41203 114.69755,158.0362 117.26249,164.48296 C 118.24348,163.72579 119.29463,163.12074 120.40191,162.64755 C 120.07862,161.27019 119.90815,159.8342 119.90815,158.35806 C 119.90815,152.04824 123.02909,146.46586 127.81178,143.07176 C 127.19604,142.05104 126.4679,141.10089 125.65988,140.20631 C 124.82241,140.81233 123.95409,141.40111 123.05938,141.96476 C 118.11553,145.07861 113.47469,146.75384 110.28328,146.82733 C 109.43427,148.4035 108.77463,150.07206 108.41939,151.82508 L 108.41941,151.82516 z M 137.89811,177.88536 C 137.91159,177.6157 137.9227,177.34631 137.93048,177.07609 C 136.91754,177.03816 135.9246,176.91854 134.95903,176.72598 C 135.92432,177.14361 136.90628,177.52609 137.89811,177.88536 L 137.89811,177.88536 z M 125.24391,171.44717 C 123.46754,169.6294 122.05809,167.45319 121.13503,165.03552 C 120.26963,165.4273 119.44591,165.91773 118.6761,166.52527 C 120.74047,168.30233 122.93738,169.94227 125.24391,171.44717 L 125.24391,171.44717 z M 158.51821,185.85107 C 158.61171,185.80217 158.70549,185.7516 158.79829,185.70089 C 157.81091,181.26428 158.33635,174.40809 160.39794,167.51389 C 158.9382,166.79923 157.45942,166.13236 155.96341,165.49689 C 153.37055,171.77989 147.45891,176.34539 140.41401,177.00759 C 140.40012,177.58026 140.37289,178.1521 140.33468,178.72213 C 143.34378,179.71062 146.40276,180.58408 149.35295,181.67885 C 152.53349,182.85934 155.58747,184.23323 158.51821,185.85108 L 158.51821,185.85107 z M 129.92701,141.77347 C 132.53029,140.4025 135.49521,139.62505 138.6413,139.62505 C 142.47676,139.62505 146.04283,140.77943 149.0122,142.75863 C 149.77007,141.65691 150.63074,140.61437 151.54449,139.63019 C 151.15562,139.31273 150.76995,138.98764 150.38761,138.65531 C 146.34723,135.14398 143.53527,131.52816 142.32907,128.61351 C 140.2829,128.60059 138.23437,128.66936 136.19208,128.79468 C 134.82709,131.7928 131.71573,135.41223 127.63742,138.69669 C 128.49434,139.66101 129.26638,140.68215 129.927,141.77345 L 129.92701,141.77347 z M 141.68111,126.13137 C 141.6154,125.22804 141.79295,124.4592 142.23433,123.86777 C 145.26649,124.15633 148.19376,124.80527 150.97307,125.7714 C 150.39331,126.36575 149.71102,126.85131 148.9055,127.09541 C 143.41426,126.5301 137.8513,126.72349 132.3611,127.22295 C 131.8647,126.49037 130.80091,125.46298 129.87494,124.73331 C 131.94529,124.23663 134.0737,123.91264 136.24005,123.77427 C 136.54612,124.11493 136.76007,124.53186 136.86913,125.02909 C 136.95277,125.41059 136.9711,125.82544 136.93026,126.26752 C 138.51226,126.18374 140.09677,126.13456 141.68113,126.13137 M 150.98407,144.26947 C 154.90011,147.70328 157.37433,152.74174 157.37433,158.35797 C 157.37433,160.01083 157.15871,161.61242 156.75664,163.13899 C 158.2457,163.76862 159.71809,164.42757 161.17241,165.13167 C 163.50811,158.49495 166.73353,153.74197 169.62412,152.22847 C 169.19413,150.65452 168.74608,149.08544 168.29275,147.51789 C 164.6536,147.59291 158.95647,145.15537 153.51355,141.15611 C 152.59731,142.12973 151.73024,143.16935 150.98404,144.26941 L 150.98407,144.26947 z M 175.02697,170.52197 C 174.97084,170.78941 174.9118,171.05685 174.85108,171.3261 C 174.92472,171.06005 174.99543,170.79358 175.06337,170.52572 C 174.04223,174.55568 172.35867,178.38142 170.08145,181.85362 C 168.58572,181.70621 166.80352,181.6844 165.26333,181.89794 C 165.92131,177.69028 165.88782,172.97637 165.51493,168.77124 C 168.29604,166.72173 170.82653,163.02479 172.66458,160.06154 C 175.08281,161.76219 175.24619,166.5653 175.38123,169.1697 C 175.2844,169.62247 175.17826,170.07205 175.06489,170.52011 L 175.02696,170.52205 L 175.02697,170.52197 z M 126.72817,162.4112 C 129.91316,167.12915 133.97577,170.87847 139.08727,173.4042 C 144.03501,170.58043 148.09845,167.00297 151.57837,162.4863 C 150.73048,157.51077 149.38799,152.61555 147.55438,147.9125 C 142.08746,147.06405 136.64668,147.21187 131.13918,147.48917 C 129.09301,152.30909 127.63938,157.25434 126.72813,162.41117 L 126.72817,162.4112 z M 167.88447,141.8062 C 168.25805,140.71184 168.36086,139.43618 168.38142,138.30918 C 164.23059,132.94215 158.65919,128.72866 152.23132,126.23308 C 151.60905,126.95732 150.88161,127.57571 150.02927,127.98486 C 152.40846,130.68081 154.58981,133.75743 155.7728,137.1597 C 160.04033,137.96897 164.10114,139.69671 167.8845,141.80624 L 167.88447,141.8062 z M 152.78747,162.1987 C 151.9179,157.12703 150.54221,152.1382 148.66526,147.3467 C 149.96648,143.85982 152.75941,140.83363 155.49023,138.36816 C 159.78763,139.17493 163.87637,140.95713 167.66473,143.10639 C 168.51248,146.07923 169.39942,149.04345 170.21161,152.02546 C 170.84083,154.33588 171.45087,156.71618 171.80765,159.08856 C 170.06476,161.92386 167.53623,165.71958 164.82652,167.73755 C 160.94716,165.55161 156.92831,163.8172 152.78752,162.19866 L 152.78747,162.1987 z M 147.59841,146.6643 C 142.13079,145.83266 136.70401,145.96964 131.19611,146.24473 C 130.14968,142.43303 127.78217,139.41087 124.8592,136.80286 C 126.40897,133.17983 129.03184,130.71075 132.23837,128.47924 C 137.68501,127.97506 143.21127,127.76694 148.66197,128.31697 C 151.08242,130.98722 153.37895,134.08801 154.5832,137.51613 C 151.7825,140.05439 148.99846,143.11031 147.59846,146.6643 L 147.59841,146.6643 z "
   style="fill:#b72500"
   id="_74480984" />
    <path
   d="M 84.6662,77.0087 L 87.16265,79.39261 C 90.13202,82.22805 93.70823,85.93708 94.69172,90.06621 C 95.80414,94.73706 93.829377,101.44771 92.56011,105.94081 C 82.83454,140.37301 96.83876,171.06051 129.18131,186.23051 C 134.40608,188.68111 140.10721,190.02332 145.51201,192.02934 C 152.0066,194.43965 157.37561,197.55906 162.53851,202.22104 L 165.69738,205.07357 L 168.85639,202.22104 C 174.01933,197.55908 179.38829,194.43967 185.88289,192.02934 C 191.28771,190.02332 196.98889,188.68111 202.21359,186.23051 C 234.55609,171.06051 248.56029,140.37291 238.83479,105.94081 C 237.56552,101.44765 235.59076,94.73701 236.70318,90.06621 C 237.68667,85.93705 241.26289,82.22802 244.23225,79.39261 L 246.7287,77.0087 L 245.20991,73.90916 C 240.37026,64.03285 239.50111,53.23376 245.90067,43.77606 L 248.36224,40.13802 L 244.90676,37.42637 L 230.63246,26.22287 L 227.38023,23.6703 L 224.42517,26.56186 C 223.84708,27.127725 223.20828,27.57133 222.42304,27.79084 C 220.52052,28.322806 217.78137,27.505476 215.98541,26.892236 C 211.99365,25.528496 208.00982,23.604306 204.11851,21.947556 C 191.42761,16.545096 179.63991,13.281196 165.69741,13.281196 C 151.75501,13.281196 139.96731,16.545096 127.27641,21.947556 C 123.3851,23.604306 119.40126,25.528496 115.40951,26.892236 C 113.61355,27.505476 110.8744,28.322806 108.97188,27.79084 C 108.18665,27.571329 107.54784,27.127724 106.96975,26.56186 L 104.01469,23.6703 L 100.76246,26.22287 L 86.488163,37.42637 L 83.032683,40.13802 L 85.494253,43.77606 C 91.893813,53.23377 91.024663,64.03286 86.185016,73.90916 L 84.666226,77.0087 L 84.6662,77.0087 z M 165.6974,198.7227 C 152.6182,186.9126 140.8277,186.4869 131.1828,181.9632 C 101.5394,168.0593 87.8164,140.0766 97.0964,107.2225 C 101.36129,92.1235 101.36796,86.4394 90.41786,75.9837 C 94.6797,67.28636 98.02598,53.8858 89.39811,41.1347 C 94.15649,37.4001 98.91459,33.66565 103.67281,29.9312 C 114.26321,40.2946 130.63301,17.9952 165.69731,17.9952 C 200.76171,17.9952 217.13151,40.2946 227.72191,29.9312 C 232.48015,33.66566 237.23825,37.40011 241.99661,41.1347 C 233.36874,53.8858 236.71502,67.2863 240.97686,75.9837 C 230.02676,86.4395 230.03346,92.1236 234.29832,107.2225 C 243.57834,140.0766 229.85532,168.0593 200.21192,181.9632 C 190.56707,186.48692 178.77662,186.91261 165.69722,198.7227 L 165.6974,198.7227 z "
   style="fill:#ffcc00"
   id="_102583184" />
    <polygon
   points="163.861,189.935 163.872,189.944 163.873,189.943 163.861,189.935 "
   style="fill:none"
   id="_74104824" />
    <path
   d="M 162.683,71.9036 C 167.41442,71.071822 174.6505,74.45103 177.444,81.31324 C 171.9611,76.81425 166.7808,73.77166 162.683,71.9036 z M 206.0302,115.7704 C 212.29264,119.08723 217.2302,118.55054 220.9989,114.9389 C 216.00934,114.25383 211.01979,114.37526 206.0302,115.7704 z M 147.487,86.4121 C 148.0355,86.546307 148.59275,86.666899 149.13625,86.728445 C 150.25561,86.855011 151.53475,86.740115 152.65717,86.671344 C 159.10953,85.692438 155.35909,99.905044 162.70017,99.636644 C 163.59544,99.587324 164.56476,99.356004 165.58048,98.985615 C 167.67708,94.649035 175.30757,87.059015 184.40128,87.293315 C 185.72835,86.104205 193.56779,74.803015 196.68558,70.545215 C 198.82011,67.630175 203.32744,70.611485 204.0296,71.071901 C 206.71235,72.831601 212.57523,71.397693 215.9578,72.267951 C 217.78543,72.314632 219.30797,72.759488 220.78759,73.261028 C 218.56623,73.186423 217.07411,73.304236 216.31124,73.613912 C 217.0077,73.651285 218.52302,74.034177 219.30798,74.845112 C 217.80183,75.04281 216.42934,75.604368 215.55866,76.215802 C 216.5584,76.731374 219.29756,76.371682 220.95834,77.601632 C 218.06997,78.047183 217.47035,79.190442 216.70928,79.993462 C 218.87229,80.558215 221.74816,82.039772 222.45156,82.485602 C 219.98846,82.261507 218.69473,82.449342 217.6001,82.874886 C 218.96134,83.315157 220.39038,84.218066 222.20663,85.519986 C 218.28614,85.851197 217.45992,86.14448 217.1251,87.003346 C 216.5948,88.362786 217.05286,89.400316 217.96674,90.049676 C 215.79998,89.888655 214.13948,89.871706 211.58287,89.765563 C 220.02152,94.990053 216.20634,101.23336 211.23763,94.563113 C 205.80169,94.97143 200.47303,95.757643 194.81033,94.043095 C 203.1238,97.570966 199.09106,101.56231 194.13054,96.204995 C 193.43269,96.278351 192.78041,96.351289 191.43334,96.277656 C 190.9343,100.93142 192.08798,102.59623 193.53217,104.6324 C 197.81165,105.24175 205.95927,111.5467 195.83286,111.98003 L 191.21842,108.72113 C 189.87329,108.56219 188.56262,108.29419 187.2864,107.81196 C 183.96276,106.55603 180.6733,102.66555 178.0696,100.31554 C 169.97425,93.009313 165.5458,106.3832 159.5775,100.42252 C 158.27447,99.12102 156.75373,97.6546 155.85193,96.0594 C 154.60628,93.8561 152.69042,89.13065 149.90486,88.6851 C 148.89692,88.523663 145.81905,87.988224 144.88029,88.355695 C 132.04049,94.030185 123.59009,101.8355 113.51129,108.4429 C 123.37412,100.35463 133.38409,94.279895 143.43729,83.262695 C 147.77318,78.887355 149.56663,83.404126 147.48712,86.412115 L 147.487,86.4121 z M 230.6491,117.1131 C 230.48766,116.09557 230.30205,115.07221 230.09143,114.04287 C 228.50359,115.24893 225.96588,116.27674 223.03847,117.23189 C 225.27776,117.50155 227.62638,117.65841 230.64909,117.1131 L 230.6491,117.1131 z M 227.99233,105.7862 C 227.02176,102.07522 226.34503,98.80229 226.07828,95.79319 C 222.60307,100.43167 223.41456,105.19533 218.10241,102.02548 C 200.05661,91.25728 203.48341,97.98301 219.75152,104.85564 C 222.32938,105.94472 225.23136,106.10254 227.99233,105.7862 L 227.99233,105.7862 z "
   style="fill:#a5a5a5"
   id="_75833312" />
    <path
   d="M 137.395,42.9008 L 142.01709,43.108501 C 142.00028,45.662461 141.38773,47.718501 140.17612,49.282721 C 138.96784,50.840691 137.19022,51.936711 134.85202,52.563151 C 131.96073,53.337968 129.3166,52.986473 126.92658,51.512001 C 124.53489,50.032671 122.87717,47.579011 121.95981,44.155061 C 120.98799,40.528551 121.17207,37.462071 122.50553,34.952011 C 123.84024,32.446671 126.03145,30.783261 129.08487,29.965091 C 131.74789,29.251543 134.12444,29.457438 136.21076,30.589307 C 137.4535,31.250895 138.55299,32.391657 139.51759,34.003247 L 135.43928,36.210717 C 134.88259,35.147207 134.10555,34.398647 133.10872,33.964767 C 132.11662,33.529219 131.03546,33.470868 129.86886,33.783462 C 128.25587,34.215675 127.09691,35.145682 126.40407,36.576662 C 125.70969,38.002232 125.71011,40.013532 126.40602,42.610562 C 127.14415,45.364862 128.16224,47.195972 129.46875,48.096242 C 130.77192,49.002765 132.21652,49.241032 133.79922,48.817014 C 134.9711,48.502892 135.87623,47.863394 136.51823,46.892264 C 137.16175,45.926279 137.45156,44.592684 137.39502,42.900784 L 137.395,42.9008 z M 152.3974,45.21789 L 151.74345,26.49279 L 145.05769,26.726194 L 144.92446,22.911154 L 162.83586,22.28541 L 162.96909,26.10086 L 156.29903,26.333708 L 156.95298,45.058908 L 152.39744,45.217845 L 152.3974,45.21789 z M 170.2547,45.072291 L 171.04174,22.531791 L 186.49754,23.071676 L 186.36403,26.886856 L 175.46363,26.506325 L 175.2776,31.838485 L 184.68738,32.166917 L 184.55415,35.982367 L 175.14437,35.653796 L 174.80996,45.231396 L 170.2547,45.07232 L 170.2547,45.072291 z M 210.4065,54.929421 L 205.61825,53.646531 L 205.04294,48.186411 L 196.33351,45.852511 L 193.21132,50.322191 L 188.54492,49.071811 L 202.86842,29.560011 L 207.51968,30.806221 L 210.40652,54.929421 L 210.4065,54.929421 z M 204.61531,44.141221 L 203.77895,35.251461 L 198.67047,42.548241 L 204.61531,44.141221 L 204.61531,44.141221 z "
   style="fill:#ffffff;fill-rule:nonzero"
   id="_101814864" />
    <path
   d="M 176.019,161.584 C 176.00969,157.18059 175.10845,153.74831 173.32249,152.35914 C 172.92973,152.05377 172.50988,151.86052 172.07086,151.77202 C 171.63226,150.14889 171.16878,148.53243 170.70184,146.91736 C 171.68505,146.3144 172.10685,145.30674 172.02863,144.02135 C 171.83357,143.64457 171.63226,143.27154 171.42484,142.90212 C 170.84202,141.86459 170.211,140.85678 169.5351,139.88274 C 169.43507,140.87081 169.23459,141.8625 168.85184,142.74263 C 168.99605,143.24848 169.14137,143.75418 169.28725,144.25961 C 170.00232,146.73758 170.73143,149.21263 171.40886,151.70004 C 172.04377,154.0306 172.65535,156.42591 173.02129,158.81871 C 174.80822,159.83804 175.66834,161.90839 176.10971,164.106 C 176.16015,163.43538 176.19238,162.76143 176.20697,162.08511 C 176.14792,161.91561 176.08568,161.74834 176.01899,161.58399 L 176.019,161.584 z "
   style="fill:#ffffff"
   id="_74480840" />
    <path
   d="M 151.554,129.808 C 153.3155,132.04242 154.8493,134.50205 155.7736,137.16035 C 160.04113,137.96962 164.10194,139.69736 167.8853,141.80689 C 168.25888,140.71253 168.36169,139.43687 168.38226,138.30987 C 165.81468,134.98998 162.70361,132.11162 159.18255,129.80801 C 157.0112,128.38758 154.68397,127.18569 152.23211,126.23374 C 151.60984,126.95799 150.88241,127.57637 150.03006,127.98552 C 150.55036,128.575 151.06106,129.18269 151.55399,129.80801 L 151.554,129.808 z "
   style="fill:#ffffff"
   id="_104981928" />
    <path
   d="M 206.03,115.77 C 212.72007,118.58932 216.7585,117.52053 220.9987,114.9385 C 216.00706,114.53949 211.0778,115.30625 206.03,115.77 z M 136.1066,92.0152 C 139.28742,89.0036 142.18801,85.44197 143.87755,83.69895 C 148.02519,79.41961 148.7536,84.550595 146.36274,86.76807 C 149.11774,87.460223 149.30251,87.498151 152.69492,87.290033 C 157.0504,87.022869 154.61369,100.70323 162.73422,100.25543 C 168.30979,99.94784 176.15812,93.317793 182.48172,87.651233 C 186.0232,84.477913 191.71894,77.796043 185.24005,73.878233 C 175.86487,68.209163 181.39209,69.385353 184.9376,69.251843 C 189.52037,69.079152 192.04363,73.492983 196.6854,70.544873 C 199.30619,68.880763 200.42416,69.448153 203.68917,71.590053 C 206.61936,73.512303 212.34539,71.978642 215.80297,72.868213 C 215.1104,75.245453 208.40519,72.793607 212.44265,76.162403 C 215.41271,78.640653 217.33218,81.937753 214.76182,86.560103 C 214.9848,86.824905 215.86868,87.412582 216.11834,88.485123 C 213.94658,88.00998 211.30536,88.697965 210.87148,89.702153 C 211.39858,90.768443 211.88039,92.672633 211.28952,93.944823 C 201.67871,93.136524 199.79422,93.167506 193.76632,93.474126 C 194.18464,93.689469 194.41832,94.241023 193.88149,94.677686 C 192.5283,94.306741 190.58786,94.0054 189.06407,93.976781 C 188.22452,101.708 189.41279,103.38711 192.15403,104.60778 C 196.48019,106.53419 194.76051,109.22056 195.22037,112.07822 C 197.17554,124.22102 199.0254,135.35632 198.08984,148.07292 C 195.62952,155.45334 193.55792,162.89992 190.89142,170.30602 C 190.26332,171.76062 188.3858,171.02235 189.11241,169.27279 C 191.37351,162.32125 193.86662,155.53009 195.53101,148.20239 C 196.87197,140.45033 196.22622,132.77569 195.21912,125.33339 C 195.22912,136.62049 195.44474,144.42909 193.88983,147.76219 C 190.43643,155.16622 186.23655,162.91939 182.64423,170.23979 C 181.91651,171.5092 180.26879,170.62004 181.05542,169.19795 C 184.62427,162.0947 188.3158,155.48885 191.68482,147.57865 C 194.22281,141.61922 192.62065,122.72815 191.58159,111.38125 C 186.53868,110.88485 184.19048,109.26603 178.48489,104.1167 C 170.08736,96.537751 164.09719,106.33904 158.46009,100.70915 C 154.79232,97.045831 153.64711,90.485751 148.91374,89.005451 C 147.2813,88.494881 146.09595,88.258004 144.88003,88.355255 C 142.1317,88.57546 140.49885,89.662875 136.10656,92.015105 L 136.1066,92.0152 z M 162.6828,71.9032 C 167.07815,72.17481 172.7875,74.68348 177.4438,81.31284 C 171.9609,76.81385 166.7806,73.77126 162.6828,71.9032 z "
   style="fill:#000000"
   id="_104654872" />
    <path
   d="M 147.555,147.913 C 142.08808,147.06455 136.6473,147.21237 131.1398,147.48968 C 129.09363,152.3096 127.64,157.25484 126.72875,162.41168 C 128.27158,164.69709 130.02044,166.75521 131.9945,168.55714 C 134.09583,170.47494 136.45237,172.10251 139.08788,173.40471 C 144.03562,170.58094 148.09906,167.00348 151.57898,162.48681 C 150.96699,158.89517 150.09715,155.34536 148.97097,151.87961 C 148.53695,150.54407 148.065,149.22117 147.55499,147.913 L 147.555,147.913 z "
   style="fill:#ffffff"
   id="_73283664" />
   </g>
  </g>
 </g>
</svg>